
        <svg xmlns="http://www.w3.org/2000/svg" xmlns:xlink="http://www.w3.org/1999/xlink" version="1.1" width="3177.5064981754854" height="1040.3625286717315" viewBox="0 0 3177.5064981754854 1040.3625286717315">
			
			<g transform="scale(8.875324908774239) translate(10, 10)">
				<defs id="SvgjsDefs5202"/><g id="SvgjsG5203" featureKey="HKaMnE-0" transform="matrix(1.0114509328340853,0,0,1.0114509328340853,-8.597332929089724,-1.621355890668993)" fill="#fff"><path xmlns="http://www.w3.org/2000/svg" display="none" d="M62.653,97.752H37.887l-6.651-12.998V61.933L19.721,50.247V25.799l4.909-9.368H13.742V0.103l15.239,7.663  v5.382l42.778-0.095V7.663L87,0v16.33H76.108l4.945,9.471v24.458L69.268,61.944v22.807L62.653,97.752z M39.894,94.473h20.747  l4.312-8.475H35.558L39.894,94.473z M34.517,82.718h31.47V68.172l-2.67,5.307l-2.929-1.475l4.578-9.103h-8.237l-6.344,6.44  l-6.307-6.44h-8.49l4.756,9.079l-2.905,1.521l-2.921-5.575V82.718z M34.517,59.623h10.94l4.936,5.038l4.963-5.038h10.631V24.562  h10.722l-4.299-8.231l-44.076,0.1l-4.256,8.122l10.439-0.031V59.623z M69.268,39.394v17.934l8.507-8.437v-9.497H69.268z   M23.002,48.902l8.234,8.356v-17.87l-8.234-0.023V48.902z M69.268,36.113h8.507v-8.271h-8.507V36.113z M23.002,36.085l8.234,0.024  v-8.295l-8.234,0.025V36.085z M17.022,13.152h8.679V9.787l-8.679-4.363V13.152z M75.041,13.049h8.679V5.321l-8.679,4.364V13.049z"/><path xmlns="http://www.w3.org/2000/svg" display="none" d="M67.344,98.334H55.887v-3.312h3.326l-5.066-15.948l3.862-11.865l-8.113,8.208l-7.747-7.655l3.75,11.317  l-5.283,15.943h3.538v3.312H32.489v-3.312h4.637l5.283-15.943l-5.45-16.445l-0.121-0.118H36.63V62.31l-5.797-5.729V43.218  l5.797-6.104V13.868L50.339,0l12.794,13.902v23.155L69,42.991v13.095l-5.81,5.907l-5.564,17.092l5.063,15.937h4.654V98.334z   M39.943,60.925l9.924,9.808l10.08-10.199l-0.079-6.75l-9.53,10.061L39.943,53.627V60.925z M39.943,48.982l10.311,10.134l9.567-10.1  V27.729H39.943V48.982z M34.146,55.196l2.485,2.455V41.924l-2.485,2.616V55.196z M63.134,49.667l0.088,7.554l2.466-2.495V44.353  l-2.554-2.583V49.667z M45.486,24.416h8.691l-4.302-2.447L45.486,24.416z M56.146,21.724l3.675,2.089v-2.089H56.146z M39.943,21.724  v1.99l3.568-1.99H39.943z M49.89,18.167l4.34,2.468V9.12l-3.978-4.32L45.81,9.294v11.147L49.89,18.167z M57.543,18.411h2.278v-3.217  l-2.278-2.474V18.411z M39.943,18.411h2.554v-5.766l-2.554,2.584V18.411z"/><path xmlns="http://www.w3.org/2000/svg" display="none" d="M79.359,98H56.263v-3.279h23.097V98z M44.646,98H21.138v-3.279h23.508V98z M68.28,86.246h-35.85  L19.498,73.683V49.139L31.45,37.324l-0.205-22.943L43.955,1.375h13.006l12.496,13.014l-0.206,22.944L81,49.147v24.526L68.28,86.246z   M33.762,82.967h33.169l4.928-4.87v-33.49l-4.693-4.72l-16.814,5.725l-16.824-5.728l-4.788,4.731v33.473L33.762,82.967z   M22.778,72.297l2.682,2.604V47.857l-2.682,2.651V72.297z M75.139,47.906v26.949l2.581-2.549V50.5L75.139,47.906z M36.784,37.527  l13.567,4.619l13.603-4.632l-13.441-9.087L36.784,37.527z M34.65,28.298l0.059,6.669l10.061-6.669H34.65z M56.179,28.298  l9.814,6.636l0.059-6.636H56.179z M36.787,13.403h9.498v13.89l4.246-2.813l4.092,2.766V13.403h9.34l-8.4-8.748H45.335L36.787,13.403  z M57.902,25.018h8.179l0.075-8.335h-8.254V25.018z M34.621,25.018h8.384v-8.335h-8.459L34.621,25.018z"/><path xmlns="http://www.w3.org/2000/svg" display="none" d="M68.306,98H32.129L7.786,73.731V25.512l12.242-13.139h25.149l5.202,5.504l5.081-5.504h24.724L93,25.489  v48.25L68.306,98z M34.467,94.69h31.506v-3.157l-15.586-5.3l-15.92,5.307V94.69z M69.283,91.039V92.4l20.407-20.05V26.837  L78.791,15.683H56.909l-6.502,7.042l-6.656-7.042H21.468L11.095,26.814v45.543l20.063,20.002v-1.298l-6.205-5.86V59.996l9.423-3.154  H19.093V41.949h15.375v14.862l6.988-2.34l-0.951-0.939h19.776l-0.95,0.939l6.54,2.189V41.949h15.374v14.893H66.41l8.803,2.946V85.18  L69.283,91.039z M28.262,83.774l4.966,4.69l15.51-5.169V61.67l-4.645-4.591l-15.831,5.298V83.774z M52.048,83.303l15.146,5.149  l4.71-4.655V62.169l-15.211-5.09l-4.645,4.591V83.303z M48.561,56.842l1.833,1.81l1.832-1.81H48.561z M69.181,53.532h8.755v-8.274  h-8.755V53.532z M22.402,53.532h8.756v-8.274h-8.756V53.532z M90.162,15.461L78.304,3.326l2.367-2.312l11.858,12.135L90.162,15.461z   M10.639,15.169l-2.396-2.283L19.55,1.028l2.395,2.284L10.639,15.169z"/><path xmlns="http://www.w3.org/2000/svg" display="none" d="M70.034,97.649H29.229l-14.072-27.5v-12.53L2.637,44.563v-28.68h14.01L49.825,3l32.561,12.884H97v28.669  L83.869,58.523v11.619L70.034,97.649z M32.183,93.985h34.89v-9.467h-34.89V93.985z M18.822,69.266l9.696,18.948V57.323  l-6.643-13.058v-14.41l14.532-14.364l13.217,6.589l13.133-6.586l14.774,14.352v14.428l-6.795,13.057v30.766l9.467-18.823V18.961  L49.812,6.937L18.822,18.97V69.266z M32.183,80.854h34.89V58.202l-17.556-5.875l-17.334,5.869V80.854z M49.51,48.46l18.493,6.188  l5.864-11.271V31.395L62.073,19.938l-12.443,6.24L37.119,19.94L25.541,31.386v12l5.724,11.252L49.51,48.46z M83.869,19.548v33.624  l9.467-10.071V19.548H83.869z M6.301,43.09l8.856,9.234V19.548H6.301V43.09z M41.938,70.985l-6.451-6.644l2.629-2.554l6.451,6.644  L41.938,70.985z M57.568,70.96l-2.674-2.505l6.222-6.643l2.675,2.506L57.568,70.96z M45.085,45.658H28.518v-16.87h16.567V45.658z   M32.183,41.994h9.238v-9.542h-9.238V41.994z M70.737,45.602H54.17V28.731h16.567V45.602z M57.835,41.937h9.237v-9.541h-9.237  V41.937z"/><path xmlns="http://www.w3.org/2000/svg" display="none" d="M67.465,97.047H31.747L19.285,84.4V26.588L7.772,14.681V1h13.425l12.486,11.966l14.58,0.116l1.396-8.393  l1.409,8.414l14.971,0.118L77.718,1h14.01v14.558L80.045,26.629v56.228L67.465,97.047z M33.111,93.787h32.888l10.786-12.166V26.629  l-8.423-7.982v28.881h6.127v14.878H59.683V50.79h-3.218l-6.804,13.65l-6.764-13.65h-3.2v11.617H24.89V47.528h5.909V18.053  l-8.253,8.535v56.477L33.111,93.787z M62.942,59.146h8.287V50.79h-8.287V59.146z M28.15,59.146h8.287V50.79H28.15V59.146z   M45.603,48.907l4.066,8.207l4.09-8.208l-4.09-24.422L45.603,48.907z M59.683,47.528h5.419V16.474l-13.485-0.106l5.22,31.161H59.683  z M39.697,47.528h2.83l5.194-31.19L34.06,16.229v31.299H39.697z M69.04,14.799l9.375,8.882l10.053-9.526V4.261h-9.355L69.04,14.799z   M11.033,13.363l9.883,10.221l9.203-9.518L19.887,4.261h-8.854V13.363z M57.086,77.891h-3.26v-5.705h3.26V77.891z M45.539,77.891  h-3.26v-5.705h3.26V77.891z"/><path xmlns="http://www.w3.org/2000/svg" display="none" d="M50.953,97.146L32.553,83.629l0.163-45.12L20.89,26.82V13.992L33.457,2h34.794l12.36,12v12.542  L69.253,38.102v45.527L50.953,97.146z M35.744,82.021l15.204,11.168l15.12-11.168V41.343l-7.885,8.025v28.317l-7.381-14.261  l-7.084,14.687V49.382l-7.827-7.736L35.744,82.021z M52.372,59.532l2.625,5.07V38.96h-2.466L52.372,59.532z M46.902,52.53v11.646  l2.286-4.739l0.158-20.478h-2.444V52.53z M30.555,31.894l13.162,13.01V38.36L30.555,31.894z M58.183,38.342v6.481l12.81-13.037  L58.183,38.342z M46.902,35.775h8.095V25.221l16.22-15.903L66.96,5.186H34.732l-3.839,3.663l16.009,16.392V35.775z M24.075,25.163  l19.642,9.648v-8.273l-4.394-4.499H27.036v-9.51l-2.961,2.825V25.163z M58.183,26.559v8.205l19.244-9.848v-9.568l-2.337-2.269v8.961  H62.792L58.183,26.559z M66.041,18.854h5.863v-5.749L66.041,18.854z M30.221,18.854h5.991l-5.991-6.134V18.854z"/><path xmlns="http://www.w3.org/2000/svg" display="none" d="M9.813,100V72.638l10.352-10.354L10,51L9.828,16.32L21.609,3.676h24.557l4.537,9.621l4.756-9.621h24.116  l12.349,12.638v35.125L81.221,62.081L91.924,72.63v27.236l-16.87-16.869h7.958l-0.047-3.376L66.359,63.274l-2.812-2.881  l-0.229,11.31h6.813l-7.083,13.3l-0.255,12.609H37.915V60.405l-2.858,2.86L18.845,79.604l-0.013,3.322l7.123,0.145L9.813,100z   M41.103,94.423H59.67l0.843-41.704l7.651,7.841l7.136,0.165l-10.083-9.938l0.306-0.306l-5.653-10.804V26.461h15.067v14.552  l2.373-2.386V18.314L66.777,6.864h-9.338L50.635,20.63l-6.49-13.766h-9.553L23.897,17.622v20.998l9.569,9.458l3.496-7.198H26.554  V26.461h14.549v13.19l-5.241,10.793l0.328,0.325l-9.948,9.948l7.011-0.159l7.851-7.853V94.423z M82.752,86.186l5.983,5.983V73.964  L78.613,63.99l-7.149-0.165l14.672,14.442l0.109,7.918H82.752z M13.002,73.959v18.076l5.648-5.924l-3.021-0.062l0.032-7.766  l14.35-14.462l-7.033,0.16L13.002,73.959z M63.254,74.892l-0.062,3.061l1.629-3.061H63.254z M13,50l9.42,10.028l9.247-9.247  L20.708,39.95V16.306l9.387-9.442h-7.099L12.987,17.607L13,50z M69.736,50.765l9.214,9.08l9.785-9.731v-32.5L78.232,6.864H71.11  l9.388,10.207v22.872L69.736,50.765z M64.112,40.909l3.769,7.201l7.04-7.082L64.112,40.909z M63.058,37.708l8.689,0.096V29.65  h-8.689V37.708z M29.743,37.69h8.171v-8.04h-8.171V37.69z M56.449,86.186H45.156v-3.188h11.293V86.186z M56.463,74.892H45.17v-3.188  h11.292V74.892z"/><path xmlns="http://www.w3.org/2000/svg" display="none" d="M79.322,97.617L56.765,74.394l-6.187,12.264l-6.25-12.317L21.345,96.921L8.583,83.771V59.327L19.11,48.223  L8.583,37.374V24.71L21.21,11.157l29.356,23.458L79.46,11.173l13.207,13.514v12.709L81.648,48.223l11.019,11.081v24.815  L79.322,97.617z M57.972,70.95l21.372,22.002l10.058-10.175V60.652L78.654,49.842H57.972V70.95z M11.849,82.446l9.552,9.842  l21.742-21.361V49.842H22.075L11.849,60.629V82.446z M46.407,71.222l4.163,8.201l4.137-8.198V48.596l-4.137-8.25l-4.163,8.253  V71.222z M57.347,46.578h21.319l10.735-10.552V26.018L79.206,15.584L52.622,37.153L57.347,46.578z M22.063,46.578H43.77l4.75-9.418  L21.536,15.598l-9.688,10.397V36.05L22.063,46.578z M43.622,26.031L20.22,2.697l2.306-2.312l23.402,23.333L43.622,26.031z   M57.502,26.021l-2.325-2.292L78.172,0.395l2.324,2.292L57.502,26.021z"/><path xmlns="http://www.w3.org/2000/svg" display="none" d="M49.989,97.904L19.793,62.093V15.641L32.359,3h34.912l12.359,12.648v46.437L49.989,97.904z M45.855,88.052  l4.111,4.875l4.026-4.864l-0.025-15.382l3.191-0.005l0.019,11.536l7.844-9.479V61.509h3.191v9.367l8.227-9.941V16.949l-2.629-2.691  l-0.058,8.954H59.368V11.548l-7.586,5.257l5.477,10.393l-7.475,29.556l-7.211-29.537l5.104-10.396l-7.672-5.38v11.771H25.621  l-0.056-8.85l-2.58,2.595v43.97l8.443,10.015v-9.433h3.192v13.217l8.045,9.542v-11.59h3.191V88.052z M45.947,27.584l3.891,15.938  l4.027-15.92l-4.103-7.786L45.947,27.584z M62.56,20.02h8.021l0.052-7.978H62.56V20.02z M28.791,20.02h8.021v-7.978h-8.072  L28.791,20.02z M49.662,12.781l0.622,1.18l11.212-7.77H38.078l11.023,7.73L49.662,12.781z M63.26,8.852h5.268L66.4,6.675  L63.26,8.852z M31.042,8.852h5.271l-3.106-2.178L31.042,8.852z"/><path xmlns="http://www.w3.org/2000/svg" display="none" d="M62.663,98.072H36.36L18.045,54.015l10.926-10.487l-11.068-5.628V25.715L6.414,14.019V1h3.363v11.642  l8.126,8.275v-7.586h3.362v15.266l9.806-5.063l1.543,2.989l-11.349,5.859v3.456l11.226,5.708l3.311,1.09V24.609l6.395-12.066  l2.971,1.575l-6.003,11.328v18.298l10.538,3.471l10.162-3.415v-18.37L54.126,14.09l3.001-1.519l6.1,12.055v18.043l3.336-1.121  l11.025-5.703v-3.7l-10.861-5.625l1.546-2.986l9.315,4.824V13.331h3.361v7.721l8.688-8.433V1H93v13.042L80.949,25.738v12.153  l-10.857,5.617l11.071,10.502L62.663,98.072z M38.604,94.71h21.825l16.735-39.858l-10.367-9.834l-3.57,1.199v11.788h5.954v15.479  h-8.188l-4.157,12.399H56.32l-6.845,6.828l-6.415-6.828h-0.457l-4.429-12.399h-8.258V58.004h5.885V46.175l-3.524-1.161  l-10.245,9.834L38.604,94.71z M47.674,85.883l1.879,2.001l2.007-2.001H47.674z M44.973,82.521h9.444l5.447-16.247V47.346  l-10.153,3.412l-10.547-3.475v18.975L44.973,82.521z M62.121,70.121h3.697v-8.755h-2.592v5.456L62.121,70.121z M33.279,70.121h3.693  l-1.171-3.281v-5.474h-2.522V70.121z M86.537,60.967h-3.362V49.671l-5.267-5.395l2.406-2.349l6.223,6.374V60.967z M15.521,60.967  h-3.362V48.301l6.223-6.374l2.406,2.349l-5.266,5.395V60.967z"/><path xmlns="http://www.w3.org/2000/svg" display="none" d="M50.53,97.328L15,62.076V1.048l13.8,13.88h43.378L85.787,1v61.072L50.53,97.328z M18.17,60.756  l32.351,32.098L82.619,60.76v-2.592l-8.693,4.475L62.322,79.538l-23.865,0.054l-11.4-16.946l-8.888-4.457V60.756z M18.17,54.641  l11.053,5.546l10.92,16.231l8.798-0.018v-8.564l-7.608-8.154h18.099l-7.32,8.137v8.574l8.541-0.02l11.113-16.184l10.854-5.587  v-24.52l-8.268,4.062h0.078v14.427H59.902V37.713l21.582-10.605l-9.281-9.011H28.775l-9.454,9.02l17,8.353l4.049,1.849v11.252H25.91  V34.145h0.527l-8.268-4.062V54.641z M48.625,62.852l1.88,2.013l1.811-2.013H48.625z M63.072,45.403h8.188v-8.087H67.9l-4.828,2.372  V45.403z M29.08,45.403h8.123v-5.968l-2.238-1.099l-2.234-1.02h-3.65V45.403z M18.17,8.731v15.105l7.706-7.353L18.17,8.731z   M75.09,16.483l7.529,7.308V8.779L75.09,16.483z"/><path xmlns="http://www.w3.org/2000/svg" display="none" d="M63.569,99H37.271L24.786,86.295h-5.148v-3.547h4.119v-2.732h-4.285v-3.547h4.285v-3.711L10.829,61.234  V20.897l13.99-13.349h51.44l13.76,13.358v39.395l-12.706,12.41v4.127h4.146v3.547h-4.146v2.732h4.312v3.547h-5.721L63.569,99z   M42.259,95.455H58.66l-8.104-8.396L42.259,95.455z M29.757,86.295l8.261,8.406l10.765-10.891l-0.114-4.885l-8.839-8.736H60.8  l-8.586,8.689l0.114,4.91l10.529,10.908l8.034-8.033h-1.381v-3.547h4.257v-2.732h-4.423v-3.547h4.423v-4.143L50.57,49.429  L27.302,72.697v3.771h4.285v3.547h-4.285v2.732h4.451v3.547H29.757z M48.462,73.736l1.947,1.926l1.901-1.926H48.462z M14.375,59.645  l11.084,9.881l22.328-22.328l-8-5.324v6.819H23.756V32.37h1.746l-11.127-7.404V59.645z M53.348,47.194l22.21,22.275l10.916-10.66  V24.979l-11.23,7.531l1.932,0.049v16.149l-16.113-0.142V42.02L53.348,47.194z M27.302,45.147h8.939v-5.611l-5.412-3.62h-3.527  V45.147z M64.607,45.052l9.021,0.079v-9.114l-3.483-0.088l-5.538,3.714V45.052z M32.352,32.667l16.447,10.943V11.094h-22.56  L15.43,21.408L32.352,32.667z M52.345,11.094v32.503l33.097-22.194l-10.62-10.309H52.345z M93.552,16.836L80.55,4.425l2.448-2.565  L96,14.271L93.552,16.836z M7.694,16.733l-2.448-2.565L18.248,1.758l2.448,2.565L7.694,16.733z"/><path xmlns="http://www.w3.org/2000/svg" d="M79.495,97.722H56.422v-3.276h23.073V97.722z M44.817,97.722H21.334v-3.276h23.483V97.722z M68.427,85.98H32.616  L19.696,73.43v-0.053l-5.27-5.735V44.446L8.5,37.942V25.58l11.605-11.816L9.058,4.067l2.162-2.463l13.226,11.609h21.387l4.685,9.425  l4.912-9.425h21.457L90.157,1.603l2.157,2.466l-11.349,9.928l11.909,11.56v12.409l-6.215,6.503v23.195l-6.013,6.238L68.427,85.98z   M33.945,82.704H67.08l10.776-10.65V51.234H57.128l-6.424,12.845l-6.575-12.845H22.973v20.811L33.945,82.704z M81.134,50.253v18.423  l2.249-2.335V47.898L81.134,50.253z M17.703,66.364l1.993,2.169V50.23l-1.993-2.187V66.364z M46.817,49.295l3.854,7.525l3.915-7.828  l-3.79-7.398L46.817,49.295z M57.737,47.958h21.058l7.865-8.231v0.001l2.938-3.075v-9.709L78.83,16.49h-0.714l-9.284,8.122h6.431  v14.815H60.518v-7.541l-7.605,6.652L57.737,47.958z M22.058,47.958H43.82l4.756-9.204l-7.923-6.955v7.628H25.908V24.611h6.556  l-9.253-8.122h-1.189L11.777,26.92v9.754L22.058,47.958z M28.178,16.49l22.443,19.7l10.452-9.144l2.722-2.435h0.062l9.283-8.122  H57.415l-6.967,13.372L43.802,16.49H28.178z M63.794,36.15h8.191v-8.263h-6.898l-1.293,1.131V36.15z M29.185,36.15h8.191v-7.142  l-1.252-1.121h-6.939V36.15z"/></g><g id="SvgjsG5204" featureKey="nameLeftFeature-0" transform="matrix(2.3705600488441476,0,0,2.3705600488441476,102.29756186082159,18.250751264555497)" fill="#fff"><path d="M1.14 13 c0 -4.04 3.18 -7.2 7.18 -7.2 c1.68 0 3.28 0.56 4.7 1.64 l-0.9 1.4 c-1.18 -0.9 -2.4 -1.34 -3.8 -1.34 c-3.02 0 -5.38 2.42 -5.38 5.5 s2.38 5.5 5.38 5.5 c1.52 0 2.82 -0.48 3.8 -1.42 l0.92 1.38 c-1.22 1.1 -2.94 1.74 -4.72 1.74 c-4 0 -7.18 -3.18 -7.18 -7.2 z M24.84 20 l-1.22 -2.84 l-6.24 0 l-1.22 2.84 l-1.92 0 l6.16 -14.2 l0.2 0 l6.16 14.2 l-1.92 0 z M18.1 15.48 l4.8 0 l-2.4 -5.54 z M38.94 11.06 c0 2.26 -1.06 4.2 -3.24 4.84 l3.02 4.1 l-2.16 0 l-2.86 -3.88 l-3.14 0 l0 3.88 l-1.8 0 l0 -14 l5.28 0 c3.3 0 4.9 2.28 4.9 5.06 z M30.56 7.68 l0 6.74 l3.4 0 c2.26 0 3.18 -1.66 3.18 -3.36 s-0.92 -3.38 -3.18 -3.38 l-3.4 0 z M46.52 6 c4.64 0 7.2 2.84 7.2 7 s-2.56 7 -7.2 7 l-4.8 0 l0 -14 l4.8 0 z M46.62 18.28 c3.4 0 5.3 -2.12 5.3 -5.28 c0 -3.18 -1.9 -5.28 -5.3 -5.28 l-3.1 0 l0 10.56 l3.1 0 z"/></g><g id="SvgjsG5205" featureKey="nameRightFeature-0" transform="matrix(2.370559734852183,0,0,2.370559734852183,231.8147201325739,18.25075308570895)" fill="#fff"><path d="M0.5 6 l1.88 0 l3.08 9.54 l3.66 -9.74 l0.22 0 l3.7 9.74 l3.06 -9.54 l1.9 0 l-4.7 14.2 l-0.22 0 l-3.84 -10 l-3.86 10 l-0.2 0 z M20.18 20 l0 -14 l1.8 0 l0 14 l-1.8 0 z M24.58 18.54 c0.88 0.82 2.7 1.66 4.52 1.66 c2.8 0 4.58 -1.44 4.58 -3.7 c0 -1.84 -0.88 -2.92 -3.92 -4.64 c-2.32 -1.34 -2.88 -1.78 -2.88 -2.66 c0 -0.94 0.88 -1.68 2.36 -1.68 c0.86 0 2 0.38 2.66 0.8 l0.96 -1.44 c-0.94 -0.62 -2.42 -1.08 -3.6 -1.08 c-2.58 0 -4.3 1.48 -4.3 3.42 c0 1.72 0.86 2.58 3.5 4.02 c2.34 1.28 3.3 2.22 3.3 3.24 c0 1.2 -1.04 1.92 -2.66 1.92 c-1.4 0 -2.8 -0.66 -3.5 -1.3 z M44.68 18.28 l0.12 1.72 l-8.52 0 l0 -14 l8.12 0 l0.14 1.72 l-6.46 0 l0 3.42 l4.38 0 l0 1.72 l-4.38 0 l0 5.42 l6.6 0 z"/></g>
			</g>
		</svg>
	